<svg viewBox="0 0 400 350" xmlns="http://www.w3.org/2000/svg">
  <style>
    .node { fill: #1CB5E0; }
    .line-solid { stroke: #888888; stroke-width: 4; stroke-linecap: round; }
    .line-dashed { stroke: #999999; stroke-width: 2.5; stroke-dasharray: 8, 6; stroke-linecap: round; }
    .shade-face { fill: #BFEAF5; opacity: 0.5; stroke: none; }
  </style>
  <polygon points="150,50 330,170 300,300" class="shade-face" />
  <line x1="150" y1="50" x2="40" y2="300" class="line-dashed" />
  <line x1="40" y1="300" x2="300" y2="300" class="line-dashed" />
  <line x1="150" y1="50" x2="330" y2="170" class="line-dashed" />
  <line x1="330" y1="170" x2="300" y2="300" class="line-dashed" />
  <line x1="150" y1="50" x2="300" y2="300" class="line-dashed" />
  <line x1="40" y1="300" x2="330" y2="170" class="line-dashed" />
  <line x1="150" y1="50" x2="190" y2="180" class="line-solid" />
  <line x1="330" y1="170" x2="190" y2="180" class="line-solid" />
  <line x1="40" y1="300" x2="190" y2="180" class="line-solid" />
  <line x1="300" y1="300" x2="190" y2="180" class="line-solid" />
  <circle cx="330" cy="170" r="22" class="node" />
  <circle cx="150" cy="50" r="22" class="node" />
  <circle cx="40" cy="300" r="22" class="node" />
  <circle cx="300" cy="300" r="22" class="node" />
  <circle cx="190" cy="180" r="22" class="node" />
</svg>